<?xml version="1.0"?>
<svg version="1.1" xmlns="http://www.w3.org/2000/svg" xmlns:xlink="http://www.w3.org/1999/xlink" width="150" height="150">
    <desc iVinci="yes" version="4.6" gridStep="20" showGrid="no" snapToGrid="no" codePlatform="0"/>
    <g id="Layer1" name="icon" opacity="1">
        <g id="Shape1">
            <desc shapeID="1" type="0" basicInfo-basicType="2" basicInfo-roundedRectRadius="23" basicInfo-polygonSides="6" basicInfo-starPoints="5" bounding="rect(-64.5,-64.4995,129,129)" text="" font-familyName="Helvetica" font-pixelSize="20" font-bold="0" font-underline="0" font-alignment="1" strokeStyle="0" markerStart="0" markerEnd="0" shadowEnabled="0" shadowOffsetX="0" shadowOffsetY="2" shadowBlur="4" shadowOpacity="160" blurEnabled="0" blurRadius="4" transform="matrix(1.14091,0,0,1.14091,75.1763,74.8229)" pers-center="0,0" pers-size="0,0" pers-start="0,0" pers-end="0,0" locked="0" mesh="" flag=""/>
            <path id="shapePath1" d="M1.58757,27.4758 C1.58757,12.9833 13.3361,1.23477 27.8286,1.23477 L122.524,1.23477 C137.017,1.23477 148.765,12.9833 148.765,27.4758 L148.765,122.172 C148.765,136.665 137.017,148.412 122.524,148.412 L27.8286,148.412 C13.3361,148.412 1.58757,136.665 1.58757,122.172 L1.58757,27.4758 Z" style="stroke:#323232;stroke-opacity:1;stroke-width:0;stroke-linejoin:miter;stroke-miterlimit:2;stroke-linecap:round;fill-rule:evenodd;fill:#ffffff;fill-opacity:1;"/>
        </g>
        <g id="Shape2">
            <desc shapeID="2" type="0" basicInfo-basicType="0" basicInfo-roundedRectRadius="12" basicInfo-polygonSides="6" basicInfo-starPoints="5" bounding="rect(-63.7319,-15.0981,127.465,30.1962)" text="" font-familyName="Helvetica" font-pixelSize="20" font-bold="0" font-underline="0" font-alignment="1" strokeStyle="0" markerStart="0" markerEnd="0" shadowEnabled="0" shadowOffsetX="0" shadowOffsetY="2" shadowBlur="4" shadowOpacity="160" blurEnabled="0" blurRadius="4" transform="matrix(1,0,0,1,78.0248,76.4019)" pers-center="0,0" pers-size="0,0" pers-start="0,0" pers-end="0,0" locked="0" mesh="" flag=""/>
            <path id="shapePath2" d="M59.5,62.5 C59.5,63 58.8352,67.9186 58,70.5 C56.9894,73.6236 57,77.5 54,79.5 C52,81 50,82 49,82 C47,82 45.5,79.5 46.5,76.5 C47.5,73 47,71.5 44.5,71 C42,70 38,72.5 35,76.5 C33,79.5 32.5,80.5 32.5,84 C29,83.5 23.5,81.5 22.5,80.5 C22.5,80.5 25,77.5 28.5,74.5 C31.5,71.5 34,68.5 34,67.5 C34,65 32,66 27,71.5 C23.5,74.5 20.5,77.5 19,78.5 L17.5,79.5 L18,72.5 C18,67.5 18,66 17,65.5 C16.5,65.5 15.5,65.5 15,66 C14.5,67 14,87.5 14.5,90 C15,91 16,91.5 16.5,91.5 C18,91.5 18.5,91 18,87.5 C18,82 18,82 27.5,86 C31,87 33.5,88 35,88 C37.0625,88.125 38.25,87.375 40.5,85.5 C43.2699,83.1918 44,83 45,84 C47,86.5 51.5,85.5 55.5,82 C57,80.5 57,80.5 57.5,83 C58.5,87.5 64,88.5 69,84 C71.5,82.5 71.5,82 72,83.5 C72,84.5 72.9804,86.0785 74.5,86.5 C77.5766,87.1088 80.5,88 86,84 L90,81.5 L90,83.5 C90.5,87 93,86.5 97,81.5 C99,79 101,77 101.5,77 C101.5,77 102.5,78.5 103,81 C103.5,83 104.5,85 105,86 C106.5,87.5 109.5,87.5 112,85.5 L114,84 L115,86 C116,89 119.5,88.5 123,85.5 C125.5,83 126,83 127,84 C128,86.5 132.5,86 137,82.5 C140.5,80 142.5,77 141.5,75.5 C141,75.5 140.5,76 139.5,77 C134.5,82 130,83.5 129,80.5 C128.5,80 128.5,78 129,76 C129,73.5 129,72 128,71.5 C125.5,69.5 122,71 116.5,77 C114,80.5 111,83 110,83.5 C107.5,84 106,82 106,78.5 C106,72 102,71 96.5,77 L93.5,81 L94,77.5 C94.5,72.5 94.5,71.5 93.5,71.5 C92.5,71.5 91.5,73 91,75 C89.5,79.5 82.5,84.5 78,84.5 C74.5,84.5 74.5,82.5 78.5,78.5 C81.5,76 82.5,74 82.5,72.5 C82.5,70 80.5,68.5 78,69.5 C76,70.5 73.125,74 72.5,75.5 C71.7188,77.25 68.5,82 66,83.5 C60.5,86 59,81 62,67.5 C62.5,64.5 63,62 62.5,61.5 C62,61 60,61.5 59.5,62.5 M79.5,74 C77.5,77 75,79 75,77 C75,76 78.5,72 79,72.5 C79.5,73 79.5,73.5 79.5,74 M43.5,76.5 C43,79 40.8125,81.75 38,84 C35.5541,85.6931 34.2801,83.2333 35.5,81 C37.5,75.5 44,71.5 43.5,76.5 M126,76.5 C126,78 125,80 123,82 C118,86.5 116,85 119,79 C122,73.5 126,72 126,76.5 Z" style="stroke:none;fill-rule:evenodd;fill:#000000;fill-opacity:1;"/>
        </g>
    </g>
</svg>
